# AST/ASF file generated using VICON BodyLanguage
# -----------------------------------------------
:version 1.10
:name VICON
:units
  mass 1.0
  length 0.45
  angle deg
:documentation
   .ast/.asf automatically generated from VICON data using
   VICON BodyBuilder and BodyLanguage model FoxedUp or BRILLIANT.MOD
:root
   order TX TY TZ RX RY RZ
   axis XYZ
   position 0 0 0  
   orientation 0 0 0 
:bonedata
  begin
     id 1 
     name lhipjoint
     direction 0.610259 -0.730986 0.305356 
     length 2.50941 
     axis 0 0 0  XYZ
  end
  begin
     id 2 
     name lfemur
     direction 0.34202 -0.939693 0  
     length 7.48822  
     axis 0 0 20  XYZ
    dof rx ry rz
    limits (-160.0 20.0)
           (-70.0 70.0)
           (-60.0 70.0)
  end
  begin
     id 3 
     name ltibia
     direction 0.34202 -0.939693 0   
     length 7.60141   
     axis 0 0 20   XYZ
    dof rx
    limits (-10.0 170.0)
  end
  begin
     id 4 
     name lfoot
     direction 0.0673488 -0.185039 0.980421   
     length 2.04049   
     axis -90 7.62852e-016 20   XYZ
    dof rx rz
    limits (-45.0 90.0)
           (-70.0 20.0)
  end
  begin
     id 5 
     name ltoes
     direction 1.5356e-011 -4.21729e-011 1   
     length 1.02897   
     axis -90 7.62852e-016 20   XYZ
    dof rx
    limits (-90.0 20.0)
  end
  begin
     id 6 
     name rhipjoint
     direction -0.57612 -0.754205 0.315056   
     length 2.43216  
     axis 0 0 0  XYZ 
  end
  begin
     id 7 
     name rfemur
     direction -0.34202 -0.939693 0   
     length 7.42799   
     axis 0 0 -20   XYZ
    dof rx ry rz
    limits (-160.0 20.0)
           (-70.0 70.0)
           (-70.0 60.0)
  end
  begin
     id 8 
     name rtibia
     direction -0.34202 -0.939693 0   
     length 7.69484   
     axis 0 0 -20   XYZ
    dof rx
    limits (-10.0 170.0)
 end
 begin
     id 9 
     name rfoot
     direction -0.111837 -0.30727 0.945028   
     length 2.15769  
     axis -90 -7.62852e-016 -20   XYZ
    dof rx rz
    limits (-45.0 90.0)
           (-20.0 70.0)
  end
  begin
     id 10 
     name rtoes
     direction -1.53539e-011 -4.21878e-011 1   
     length 1.07391   
     axis -90 -7.62852e-016 -20   XYZ
    dof rx
    limits (-90.0 20.0)
  end
  begin
     id 11 
     name lowerback
     direction 0.00552624 0.990109 -0.140195   
     length 2.12403   
     axis 0 0 0   XYZ
    dof rx ry rz
    limits (-20.0 45.0)
           (-30.0 30.0)
           (-30.0 30.0)
  end
  begin
     id 12 
     name upperback
     direction 0.00361898 0.999976 -0.00584723   
     length 2.13232   
     axis 0 0 0   XYZ
    dof rx ry rz
    limits (-20.0 45.0)
           (-30.0 30.0)
           (-30.0 30.0)
  end
  begin
     id 13 
     name thorax
     direction -0.000331275 0.998253 0.0590847   
     length 2.17688   
     axis 0 0 0   XYZ
    dof rx ry rz
    limits (-20.0 45.0)
           (-30.0 30.0)
           (-30.0 30.0)
  end
  begin
     id 14 
     name lowerneck
     direction -0.0561561 0.979832 0.19177   
     length 1.64159   
     axis 0 0 0   XYZ
    dof rx ry rz
    limits (-20.0 45.0)
           (-30.0 30.0)
           (-30.0 30.0)
  end
  begin
     id 15 
     name upperneck
     direction 0.0827153 0.979385 -0.184293   
     length 1.68939   
     axis 0 0 0   XYZ
    dof rx ry rz
    limits (-20.0 45.0)
           (-30.0 30.0)
           (-30.0 30.0)
  end
  begin
     id 16
     name head
     direction 0.0278583 0.995936 -0.0856488  
     length 1.70207  
     axis 0 0 0   XYZ
    dof rx ry rz
    limits (-20.0 45.0)
           (-30.0 30.0)
           (-30.0 30.0)
  end
  begin
     id 17 
     name lclavicle
     direction 0.950993 0.301131 -0.0702275  
     length 3.41652  
     axis 0 0 0   XYZ
    dof ry rz
    limits (-20.0 10.0)
           (0.0 20.0)
  end
  begin
     id 18 
     name lhumerus
     direction 1 -4.48981e-011 -3.9662e-029   
     length 5.32955   
     axis 180 -30 -90   XYZ
    dof rx ry rz
    limits (-60.0 90.0)
           (-90.0 90.0)
           (-90.0 90.0)
  end
  begin
     id 19
     name lradius
     direction 1 -4.48925e-011 -9.0549e-027   
     length 3.69232   
     axis 180 -30 -90   XYZ
    dof rx
    limits (-10.0 170.0)
  end
  begin
     id 20
     name lwrist
     direction 1 -4.49007e-011 -1.49005e-026   
     length 1.84616   
     axis 9.0955e-015 90 90   XYZ
    dof ry
    limits (-180.0 0.0)
 end
  begin
     id 21 
     name lhand
     direction 1 -4.49016e-011 -2.98023e-026   
     length 0.536598   
     axis 1.90115e-014 90 90   XYZ
    dof rx rz
    limits (-90.0 90.0)
           (-45.0 45.0)
  end
  begin
     id 22 
     name lfingers
     direction 1 -4.48924e-011 -5.9578e-026   
     length 0.432619   
     axis 3.80223e-014 90 90   XYZ
    dof rx
    limits (0.0 90.0)
  end
  begin
     id 23
     name lthumb
     direction 0.707107 -6.34947e-011 0.707107   
     length 0.621157   
     axis -90 45 -3.84942e-014   XYZ
    dof rx rz
    limits (-45.0 45.0)
           (-45.0 45.0)
  end
  begin
     id 24 
     name rclavicle
     direction -0.955495 0.276497 -0.102848   
     length 3.36357  
     axis 0 0 0   XYZ 
    dof ry rz
    limits (-10.0 20.0)
           (-20.0 0.0)
  end
  begin
     id 25 
     name rhumerus
     direction -1 -4.48961e-011 3.30983e-027  
     length 5.23431   
     axis 180 30 90   XYZ
    dof rx ry rz
    limits (-90.0 60.0)
           (-90.0 90.0)
           (-90.0 90.0)
  end
  begin
     id 26 
     name rradius
     direction -1 -4.48965e-011 -6.63263e-027   
     length 3.55301   
     axis 180 30 90   XYZ
    dof rx
    limits (-10.0 170.0)
  end
  begin
     id 27 
     name rwrist
     direction -1 -4.48942e-011 -1.48958e-026   
     length 1.77651   
     axis 9.0955e-015 -90 -90   XYZ
    dof ry
    limits (-180.0 0.0)
  end
  begin
     id 28
     name rhand
     direction -1 -4.48977e-011 -2.97966e-026   
     length 0.772522   
     axis 1.90115e-014 -90 -90   XYZ
    dof rx rz
    limits (-90.0 90.0)
           (-45.0 45.0)
  end
  begin
     id 29
     name rfingers
     direction -1 -4.49135e-011 -5.96389e-026   
     length 0.622827   
     axis 3.80223e-014 -90 -90   XYZ
    dof rx
    limits (0.0 90.0)
  end
  begin
     id 30
     name rthumb
     direction -0.707107 -6.34969e-011 0.707107   
     length 0.894259   
     axis -90 -45 3.84942e-014   XYZ
    dof rx rz
    limits (-45.0 45.0)
           (-45.0 45.0)
  end
:hierarchy
  begin
    root lhipjoint rhipjoint lowerback
    lhipjoint lfemur
    lfemur ltibia
    ltibia lfoot
    lfoot ltoes
    rhipjoint rfemur
    rfemur rtibia
    rtibia rfoot
    rfoot rtoes
    lowerback upperback
    upperback thorax
    thorax lowerneck lclavicle rclavicle
    lowerneck upperneck
    upperneck head
    lclavicle lhumerus
    lhumerus lradius
    lradius lwrist
    lwrist lhand lthumb
    lhand lfingers
    rclavicle rhumerus
    rhumerus rradius
    rradius rwrist
    rwrist rhand rthumb
    rhand rfingers
  end

#!OML:ASF F:\VICON\USERDATA\INSTALL\rory3\rory3.ASF
:FULLY-SPECIFIED
:DEGREES
76
root -8.35193 17.6259 -5.88812 4.72592 40.0167 8.03186
lowerback 11.5988 -0.15173 -7.04355
upperback 0.645104 -1.13029 -0.422054
thorax -5.7109 -0.369903 3.71117
lowerneck -16.1348 -6.31609 -12.3203
upperneck 35.0405 -7.34251 6.36732
head 15.8979 -3.73712 3.56824
rclavicle 1.03865e-014 1.63003e-014
rhumerus -36.4281 -20.3242 -75.1938
rradius 27.064
rwrist 7.35809
rhand -15.1548 7.51957
rfingers 7.12502
rthumb 11.0155 -22.1714
lclavicle 1.03865e-014 1.63003e-014
lhumerus -30.0269 5.30808 80.7561
lradius 36.8532
lwrist -4.16722
lhand -18.5044 25.909
lfingers 7.12502
lthumb 7.78354 55.7458
rfemur -27.9439 -0.998358 13.4887
rtibia 21.7992
rfoot -5.65562 -6.47988
rtoes -1.55632
lfemur 18.9203 -2.46861 -30.1039
ltibia 0
lfoot -5.14474 -9.94341
ltoes -4.34415
77
root -8.28786 17.6134 -5.77073 4.68354 40.2072 8.0666
lowerback 11.5899 -0.195671 -7.14892
upperback 0.782923 -1.19047 -0.364202
thorax -5.54894 -0.404988 3.83972
lowerneck -16.3143 -6.37207 -12.2684
upperneck 35 -7.37882 6.25165
head 15.9167 -3.75791 3.49612
rclavicle 1.46107e-014 3.57812e-014
rhumerus -36.1831 -20.5915 -75.101
rradius 26.7458
rwrist 7.72816
rhand -15.3343 7.7081
rfingers 7.12502
rthumb 10.8423 -21.992
lclavicle 1.46107e-014 3.57812e-014
lhumerus -29.984 5.80444 80.7173
lradius 36.7122
lwrist -4.23698
lhand -18.6141 25.9467
lfingers 7.12502
lthumb 7.67762 55.7873
rfemur -27.822 -1.1371 13.6103
rtibia 22.4186
rfoot -5.31611 -6.32672
rtoes -1.83127
lfemur 19.4641 -2.72581 -30.0659
ltibia -5.40694e-014
lfoot -4.83853 -9.92692
ltoes -4.77894
78
root -8.21805 17.6077 -5.6498 4.57345 40.4631 7.96785
lowerback 11.6885 -0.251165 -7.04379
upperback 0.779753 -1.25475 -0.293041
thorax -5.60037 -0.436361 3.86806
lowerneck -16.3684 -6.42559 -12.3462
upperneck 35.068 -7.4093 6.20303
head 15.9709 -3.78704 3.48316
rclavicle 8.58253e-014 -7.95139e-016
rhumerus -36.288 -20.7449 -74.9278
rradius 26.5601
rwrist 8.04339
rhand -15.9304 8.11207
rfingers 7.12502
rthumb 10.2673 -21.6173
lclavicle 8.58253e-014 -7.95139e-016
lhumerus -30.2931 6.2074 80.6937
lradius 36.6784
lwrist -4.22442
lhand -18.6428 25.7871
lfingers 7.12502
lthumb 7.64997 55.6288
rfemur -27.6277 -1.17526 13.7765
rtibia 23.0376
rfoot -4.75776 -5.99015
rtoes -1.0899
lfemur 19.9726 -3.03981 -29.9348
ltibia 1.90833e-014
lfoot -4.53629 -9.87172
ltoes -6.37607
79
root -8.14461 17.617 -5.52443 4.43208 40.7301 7.8471
lowerback 11.8273 -0.300431 -6.86563
upperback 0.706008 -1.31114 -0.281337
thorax -5.75338 -0.461138 3.79288
lowerneck -16.2173 -6.38778 -12.2876
upperneck 35.1797 -7.3856 6.19006
head 15.983 -3.77327 3.47901
rclavicle 1.02722e-013 8.34896e-015
rhumerus -36.6155 -20.7596 -74.908
rradius 26.4185
rwrist 7.71773
rhand -15.962 7.95873
rfingers 7.12502
rthumb 10.2368 -21.7722
lclavicle 1.02722e-013 8.34896e-015
lhumerus -30.7207 6.44073 80.5812
lradius 36.6072
lwrist -4.14844
lhand -19.2087 25.4496
lfingers 7.12502
lthumb 7.10369 55.3104
rfemur -27.3645 -1.04923 13.9228
rtibia 23.6133
rfoot -3.61715 -5.63839
rtoes -0.498379
lfemur 20.5421 -3.36624 -29.7696
ltibia -2.22639e-014
lfoot -4.11825 -9.88057
ltoes -6.48749
80
root -8.06861 17.6319 -5.3961 4.47079 41.0597 7.9238
lowerback 11.7593 -0.433043 -6.95977
upperback 0.733499 -1.48927 -0.225579
thorax -5.66163 -0.549509 3.93149
lowerneck -16.1997 -6.30909 -12.2241
upperneck 35.2245 -7.2678 6.13124
head 15.9784 -3.72387 3.46726
rclavicle -2.12203e-014 2.50469e-014
rhumerus -36.597 -20.7762 -74.8422
rradius 26.0592
rwrist 7.69203
rhand -15.5879 7.74353
rfingers 7.12502
rthumb 10.5977 -21.9693
lclavicle -2.12203e-014 2.50469e-014
lhumerus -30.9877 7.04221 80.4392
lradius 36.4185
lwrist -4.25237
lhand -19.6269 24.8756
lfingers 7.12502
lthumb 6.7 54.7496
rfemur -27.1475 -1.07575 13.8917
rtibia 24.0953
rfoot -2.17128 -5.19503
rtoes 1.7423
lfemur 21.0784 -3.77373 -29.7536
ltibia 3.18055e-015
lfoot -3.45078 -9.95774
ltoes -5.67562
81
root -7.99557 17.6499 -5.26772 4.41767 41.3711 7.7513
lowerback 11.8126 -0.508076 -6.71385
upperback 0.629065 -1.56384 -0.186607
thorax -5.79891 -0.584851 3.84886
lowerneck -16.1553 -6.33394 -12.2226
upperneck 35.3952 -7.26626 6.00962
head 16.048 -3.74072 3.42
rclavicle 5.46658e-016 3.18055e-015
rhumerus -36.8868 -21.0892 -74.5623
rradius 25.854
rwrist 8.04642
rhand -15.4962 7.87254
rfingers 7.12502
rthumb 10.6862 -21.8357
lclavicle 5.46658e-016 3.18055e-015
lhumerus -31.3962 7.29727 80.372
lradius 36.2984
lwrist -4.20395
lhand -19.5961 24.8872
lfingers 7.12502
lthumb 6.72973 54.7603
rfemur -26.9833 -1.05658 14.0673
rtibia 24.4789
rfoot -0.978045 -4.72484
rtoes 4.0684
lfemur 21.4802 -4.17069 -29.51
ltibia -1.59028e-014
lfoot -2.55818 -10.1096
ltoes -4.66113
82
root -7.92605 17.6699 -5.14061 4.12203 41.4666 7.16878
lowerback 11.7682 -0.540037 -6.38441
upperback 0.602536 -1.54818 0.0313438
thorax -5.80598 -0.582964 3.89075
lowerneck -16.2504 -6.31956 -12.1996
upperneck 35.4913 -7.18123 5.85333
head 16.0996 -3.72221 3.36482
rclavicle -1.06847e-013 2.18663e-014
rhumerus -36.9104 -21.2259 -74.3452
rradius 25.592
rwrist 8.27007
rhand -15.678 8.22177
rfingers 7.12502
rthumb 10.5108 -21.4954
lclavicle -1.06847e-013 2.18663e-014
lhumerus -31.6799 7.7869 80.3853
lradius 36.1232
lwrist -4.3313
lhand -19.4481 25.0644
lfingers 7.12502
lthumb 6.87259 54.9329
rfemur -26.8392 -0.55584 14.5148
rtibia 24.7989
rfoot -0.207108 -4.49292
rtoes 5.85303
lfemur 21.8179 -4.34968 -28.9276
ltibia -1.27222e-014
lfoot -1.7777 -10.3069
ltoes -5.04354
